<mxfile host="app.diagrams.net" modified="2023-08-10T17:05:27.572Z" agent="Mozilla/5.0 (Windows NT 10.0; Win64; x64) AppleWebKit/537.36 (KHTML, like Gecko) Chrome/115.0.0.0 Safari/537.36 Edg/115.0.1901.200" etag="Z5a90WxoeOTSBRc6uyoL" version="21.5.2" type="device">
  <diagram name="Page-1" id="cuwxeDbLavxBWAsA6PtN">
    <mxGraphModel dx="1114" dy="616" grid="1" gridSize="10" guides="1" tooltips="1" connect="1" arrows="1" fold="1" page="1" pageScale="1" pageWidth="850" pageHeight="1100" math="0" shadow="0">
      <root>
        <mxCell id="0" />
        <mxCell id="1" parent="0" />
        <mxCell id="NQ-m_rRh95HxoB8fuPMH-1" value="" style="rounded=0;whiteSpace=wrap;html=1;fillColor=#008a00;fontColor=#ffffff;strokeColor=#005700;" vertex="1" parent="1">
          <mxGeometry x="35" y="51" width="780" height="100" as="geometry" />
        </mxCell>
        <mxCell id="NQ-m_rRh95HxoB8fuPMH-3" value="&lt;h1&gt;&lt;b&gt;&lt;font face=&quot;Comic Sans MS&quot; style=&quot;font-size: 45px;&quot;&gt;&lt;i&gt;Get GIPHY&#39;d&lt;/i&gt;&lt;/font&gt;&lt;/b&gt;&lt;/h1&gt;" style="rounded=0;whiteSpace=wrap;html=1;fillColor=none;strokeColor=none;" vertex="1" parent="1">
          <mxGeometry x="40" y="61" width="360" height="80" as="geometry" />
        </mxCell>
        <mxCell id="NQ-m_rRh95HxoB8fuPMH-4" value="About&lt;span style=&quot;white-space: pre;&quot;&gt;&#x9;&lt;/span&gt;Search&lt;span style=&quot;white-space: pre;&quot;&gt;&#x9;&lt;/span&gt;Contact" style="rounded=0;whiteSpace=wrap;html=1;fillColor=#008a00;fontColor=#ffffff;strokeColor=none;fontStyle=4;fontFamily=Lucida Console;" vertex="1" parent="1">
          <mxGeometry x="430" y="101" width="360" height="40" as="geometry" />
        </mxCell>
        <mxCell id="NQ-m_rRh95HxoB8fuPMH-5" value="Title and link fonts to be chosen from Google:&lt;br&gt;Desktop Header" style="rounded=0;whiteSpace=wrap;html=1;" vertex="1" parent="1">
          <mxGeometry x="35" y="10" width="440" height="30" as="geometry" />
        </mxCell>
        <mxCell id="NQ-m_rRh95HxoB8fuPMH-6" value="Mobile Header" style="rounded=0;whiteSpace=wrap;html=1;" vertex="1" parent="1">
          <mxGeometry x="50" y="170" width="420" height="30" as="geometry" />
        </mxCell>
        <mxCell id="NQ-m_rRh95HxoB8fuPMH-7" value="" style="rounded=0;whiteSpace=wrap;html=1;fillColor=#008a00;fontColor=#ffffff;strokeColor=#005700;" vertex="1" parent="1">
          <mxGeometry x="35" y="240" width="355" height="160" as="geometry" />
        </mxCell>
        <mxCell id="NQ-m_rRh95HxoB8fuPMH-8" value="&lt;h1&gt;&lt;b&gt;&lt;font face=&quot;Comic Sans MS&quot; style=&quot;font-size: 45px;&quot;&gt;&lt;i&gt;Get GIPHY&#39;d&lt;/i&gt;&lt;/font&gt;&lt;/b&gt;&lt;/h1&gt;" style="rounded=0;whiteSpace=wrap;html=1;fillColor=none;strokeColor=none;" vertex="1" parent="1">
          <mxGeometry x="40" y="250" width="360" height="80" as="geometry" />
        </mxCell>
        <mxCell id="NQ-m_rRh95HxoB8fuPMH-9" value="About&lt;br&gt;Search&lt;br&gt;Contact" style="rounded=0;whiteSpace=wrap;html=1;fillColor=#008a00;fontColor=#ffffff;strokeColor=none;fontStyle=4;fontFamily=Lucida Console;" vertex="1" parent="1">
          <mxGeometry x="172.5" y="330" width="95" height="70" as="geometry" />
        </mxCell>
        <mxCell id="NQ-m_rRh95HxoB8fuPMH-10" style="edgeStyle=orthogonalEdgeStyle;rounded=0;orthogonalLoop=1;jettySize=auto;html=1;exitX=0.5;exitY=1;exitDx=0;exitDy=0;" edge="1" parent="1" source="NQ-m_rRh95HxoB8fuPMH-7" target="NQ-m_rRh95HxoB8fuPMH-7">
          <mxGeometry relative="1" as="geometry" />
        </mxCell>
      </root>
    </mxGraphModel>
  </diagram>
</mxfile>
